<?xml version="1.0" encoding="UTF-8" standalone="no"?>
<svg
   xmlns:dc="http://purl.org/dc/elements/1.1/"
   xmlns:cc="http://creativecommons.org/ns#"
   xmlns:rdf="http://www.w3.org/1999/02/22-rdf-syntax-ns#"
   xmlns:svg="http://www.w3.org/2000/svg"
   xmlns="http://www.w3.org/2000/svg"
   viewBox="0 0 593.33331 193.33333"
   height="193.33333"
   width="593.33331"
   xml:space="preserve"
   id="svg2"
   version="1.1"><metadata
     id="metadata8"><rdf:RDF><cc:Work
         rdf:about=""><dc:format>image/svg+xml</dc:format><dc:type
           rdf:resource="http://purl.org/dc/dcmitype/StillImage" /></cc:Work></rdf:RDF></metadata><defs
     id="defs6" /><g
     transform="matrix(1.3333333,0,0,-1.3333333,0,193.33333)"
     id="g10"><g
       transform="scale(0.1)"
       id="g12"><path
         id="path14"
         style="fill:#232e61;fill-opacity:1;fill-rule:evenodd;stroke:none"
         d="M 548.98,84.4883 C 415,87.8086 303.48,133.98 214.488,222.969 125.512,311.988 79.3398,423.48 75.9805,557.5 c 0,0 0,0.16 0,0.469 C 77.3398,655 103.672,741.988 155,818.98 L 280,600.469 c 28.012,-46.328 54.141,-105.821 78.48,-178.481 24.68,-72.648 41.36,-163.008 50,-271.008 44.329,-15.32 91.168,-23.171 140.5,-23.48 48.36,0.309 94.34,7.969 138.008,22.969 9.653,119.019 28.012,216.011 55,291.011 26.992,74.649 55.821,135.36 86.492,182 L 940.512,822.5 c 52.648,-78.012 79.648,-166.172 80.968,-264.531 0,-0.309 0,-0.469 0,-0.469 C 1018.16,423.48 971.988,311.988 883.012,222.969 793.98,133.98 682.66,87.8086 548.98,84.4883 m 227.5,971.9917 c -16.64,58.68 -58.468,90.36 -125.5,95 -0.32,0 -8.171,-0.15 -23.48,-0.5 v -51.49 h -76.02 v -35.51 h 76.02 v -63 H 551.48 V 965.469 H 627.5 V 913.98 c 15.309,-0.351 23.16,-0.5 23.48,-0.5 52.032,2.34 90,23.821 114.02,64.489 41.988,-21.641 79.648,-48.629 113.012,-80.981 L 694.488,645.469 C 651.84,588.48 602.34,559.488 545.98,558.48 c -56.332,1.008 -105.82,30 -148.48,86.989 L 216.48,893.48 c 34.032,33.668 72.86,61.829 116.532,84.489 23.629,-40.668 61.636,-62.149 113.976,-64.489 0,0.348 7.66,0.5 23.012,0.5 v 237 c -15.352,0.35 -23.012,0.5 -23.012,0.5 C 380,1146.84 338.012,1115.16 320.98,1056.48 221.988,1010.16 143.98,942.809 86.9883,854.488 30,766.129 0.980469,667.148 0,557.5 3.98047,402.148 57.6602,272.809 160.98,169.488 264.34,66.1289 393.672,12.5 548.98,8.48047 704.34,12.5 833.48,66.1289 936.48,169.488 c 103.36,103.321 157,232.66 161.02,388.012 -1.02,109.648 -30,208.629 -86.99,296.988 -57.03,88.321 -134.998,155.672 -234.03,201.992" /><path
         id="path16"
         style="fill:#000000;fill-opacity:1;fill-rule:evenodd;stroke:none"
         d="m 435.98,724.488 c 0.661,-31.988 11.68,-58.668 33,-80 21.329,-21.328 47.86,-32.34 79.5,-33.008 32.032,0.668 58.668,11.68 80,33.008 21.36,21.332 32.34,48.012 33,80 -0.66,31.641 -11.64,58.172 -33,79.492 -21.332,21.329 -47.968,32.348 -80,33.008 -31.64,-0.66 -58.171,-11.679 -79.5,-33.008 -21.32,-21.32 -32.339,-47.851 -33,-79.492" /><path
         id="path18"
         style="fill:#ffc223;fill-opacity:1;fill-rule:evenodd;stroke:none"
         d="m 903.48,1450 -218.992,-128.52 40,-18.98 -125,-125 218.992,127.97 -40,19.53 125,125" /><path
         id="path20"
         style="fill:#4a7330;fill-opacity:1;fill-rule:evenodd;stroke:none"
         d="M 419.488,1321.48 200.512,1450 l 125,-125 -40,-19.53 218.976,-127.97 -125,125 40,18.98" /><path
         id="path22"
         style="fill:#262f63;fill-opacity:1;fill-rule:nonzero;stroke:none"
         d="m 1441.05,613.98 h -230.31 v 336.098 h 230.31 v -67.187 h -163.12 v -67.34 h 110.47 v -67.192 h -110.47 v -67.031 h 163.12 z m 104.38,0 h -64.06 v 251.098 h 15.47 l 21.09,-24.379 c 10.31,9.379 21.95,16.571 35,21.571 13.12,5.07 26.76,7.652 40.94,7.652 15.31,0 29.72,-2.934 43.28,-8.75 13.63,-5.863 25.51,-13.902 35.62,-24.223 10.2,-10.23 18.21,-22.148 24.07,-35.777 5.93,-13.672 8.9,-28.242 8.9,-43.75 V 613.98 h -64.06 v 143.442 c 0,6.558 -1.25,12.738 -3.75,18.598 -2.5,5.929 -5.94,11.089 -10.31,15.46 -4.38,4.379 -9.5,7.821 -15.32,10.321 -5.74,2.5 -11.87,3.75 -18.43,3.75 -6.68,0 -12.97,-1.25 -18.91,-3.75 -5.94,-2.5 -11.09,-5.942 -15.47,-10.321 -4.37,-4.371 -7.81,-9.531 -10.31,-15.46 -2.5,-5.86 -3.75,-12.04 -3.75,-18.598 z" /><path
         id="path24"
         style="fill:#262f63;fill-opacity:1;fill-rule:nonzero;stroke:none"
         d="m 1851.21,675.391 c 2.5,-0.743 5,-1.25 7.5,-1.563 2.5,-0.238 5,-0.308 7.5,-0.308 6.25,0 12.23,0.82 17.97,2.5 5.82,1.75 11.29,4.25 16.41,7.5 5.07,3.199 9.61,7.101 13.59,11.71 3.94,4.571 7.19,9.692 9.69,15.321 l 46.87,-47.031 c -5.94,-8.442 -12.77,-16.059 -20.47,-22.821 -7.73,-6.679 -16.09,-12.34 -25.15,-17.027 -8.99,-4.692 -18.4,-8.242 -28.28,-10.621 -9.93,-2.5 -20.12,-3.75 -30.63,-3.75 -17.62,0 -34.22,3.277 -49.84,9.84 -15.55,6.558 -29.14,15.66 -40.78,27.339 -11.57,11.758 -20.75,25.711 -27.5,41.879 -6.68,16.25 -10,34.063 -10,53.442 0,19.758 3.32,37.847 10,54.219 6.75,16.441 15.93,30.46 27.5,42.031 11.64,11.558 25.23,20.5 40.78,26.871 15.62,6.449 32.22,9.687 49.84,9.687 10.51,0 20.78,-1.25 30.78,-3.75 10,-2.5 19.46,-6.089 28.44,-10.781 8.95,-4.687 17.34,-10.43 25.16,-17.187 7.81,-6.801 14.68,-14.371 20.62,-22.813 z m 32.81,132.031 c -2.93,1.019 -5.86,1.719 -8.75,2.027 -2.93,0.321 -5.93,0.473 -9.06,0.473 -8.75,0 -16.99,-1.641 -24.69,-4.844 -7.73,-3.129 -14.45,-7.656 -20.15,-13.598 -5.75,-5.929 -10.28,-13.121 -13.6,-21.558 -3.24,-8.363 -4.84,-17.731 -4.84,-28.121 0,-2.422 0.08,-5.121 0.31,-8.129 0.31,-2.934 0.71,-5.902 1.25,-8.902 0.51,-3.051 1.13,-5.942 1.88,-8.75 0.82,-2.821 1.87,-5.321 3.12,-7.5 z" /><path
         id="path26"
         style="fill:#262f63;fill-opacity:1;fill-rule:nonzero;stroke:none"
         d="m 2067.62,613.98 h -64.07 v 251.098 h 15.47 l 21.1,-29.848 c 10.31,9.379 22.03,16.61 35.15,21.719 13.13,5.082 26.72,7.66 40.78,7.66 h 56.57 v -63.75 h -56.57 c -6.67,0 -12.96,-1.25 -18.9,-3.75 -5.94,-2.5 -11.1,-5.937 -15.47,-10.308 -4.38,-4.379 -7.81,-9.531 -10.31,-15.473 -2.5,-5.937 -3.75,-12.308 -3.75,-19.058 z" /><path
         id="path28"
         style="fill:#262f63;fill-opacity:1;fill-rule:nonzero;stroke:none"
         d="m 2376.68,741.801 c 0,8.75 -1.68,17.179 -5,25.308 -3.36,8.2 -7.93,15.512 -13.75,21.871 -5.74,6.329 -12.5,11.411 -20.31,15.161 -7.74,3.828 -15.94,5.781 -24.69,5.781 -8.75,0 -16.99,-1.524 -24.69,-4.531 -7.73,-2.93 -14.45,-7.301 -20.15,-13.121 -5.75,-5.75 -10.28,-12.891 -13.6,-21.411 -3.24,-8.437 -4.84,-18.129 -4.84,-29.058 0,-10.551 1.6,-19.961 4.84,-28.281 3.32,-8.36 7.85,-15.469 13.6,-21.411 5.7,-5.937 12.42,-10.55 20.15,-13.75 7.7,-3.238 15.94,-4.839 24.69,-4.839 8.75,0 16.95,1.91 24.69,5.781 7.81,3.82 14.57,8.898 20.31,15.148 5.82,6.332 10.39,13.641 13.75,21.879 3.32,8.203 5,16.723 5,25.473 z m 64.53,-96.102 c 0,-17.73 -3.4,-34.25 -10.16,-49.679 -6.67,-15.508 -15.85,-29.071 -27.5,-40.629 -11.67,-11.563 -25.27,-20.661 -40.78,-27.34 -15.54,-6.762 -32.15,-10.16 -49.84,-10.16 l -32.03,0.468 v 63.911 l 31.56,-0.469 c 10,0 18.48,1.32 25.47,3.898 7.07,2.621 13.01,6.18 17.81,10.629 4.88,4.371 8.79,9.492 11.72,15.313 2.89,5.82 5.2,11.91 6.88,18.281 -2.5,-4.063 -6.1,-7.422 -10.79,-10 -4.68,-2.5 -9.92,-4.613 -15.62,-6.25 -5.63,-1.641 -11.56,-2.813 -17.81,-3.442 -6.17,-0.621 -11.88,-0.929 -17.19,-0.929 -17.62,0 -34.22,3.039 -49.84,9.058 -15.55,6.129 -29.14,14.879 -40.79,26.25 -11.56,11.332 -20.74,25.192 -27.5,41.563 -6.68,16.449 -10,35 -10,55.629 0,18.82 3.32,36.398 10,52.648 6.76,16.25 15.94,30.321 27.5,42.192 11.65,11.879 25.24,21.129 40.79,27.808 15.62,6.762 32.22,10.16 49.84,10.16 8.12,0 16.13,-1.058 24.06,-3.129 8.01,-1.992 15.78,-4.8 23.28,-8.429 7.5,-3.563 14.61,-7.781 21.41,-12.66 6.87,-4.801 13.28,-10 19.22,-15.621 l 24.84,29.839 h 15.47 z" /><path
         id="path30"
         style="fill:#262f63;fill-opacity:1;fill-rule:nonzero;stroke:none"
         d="m 2550.59,518.359 v 64.371 l 35.62,-0.46 c 6.25,0 12.23,1.05 17.97,3.121 5.82,1.988 11.17,4.808 16.09,8.437 5,3.551 9.38,7.813 13.13,12.813 3.75,4.918 6.76,10.238 9.06,16.089 -6.99,-3.039 -14.14,-6.011 -21.41,-8.902 -7.3,-3.008 -14.6,-4.527 -21.87,-4.527 -15.55,0 -30.12,2.73 -43.75,8.121 -13.55,5.508 -25.43,13.316 -35.63,23.437 -10.23,10.082 -18.28,22.34 -24.21,36.719 -5.86,14.453 -8.75,30.703 -8.75,48.75 v 138.75 h 63.75 v -138.75 c 0,-8.988 1.29,-16.797 3.9,-23.437 2.58,-6.563 6.1,-12.11 10.47,-16.563 4.38,-4.488 9.45,-7.808 15.31,-10 5.82,-2.187 12.11,-3.277 18.91,-3.277 6.56,0 12.73,1.48 18.59,4.527 5.82,3.121 10.94,7.192 15.32,12.192 4.37,5 7.81,10.621 10.31,16.871 2.5,6.328 3.75,12.89 3.75,19.687 v 138.75 h 64.53 V 645.699 c -0.23,-17.73 -3.71,-34.25 -10.47,-49.679 -6.68,-15.508 -15.86,-29.071 -27.5,-40.629 -11.56,-11.563 -25.12,-20.661 -40.62,-27.34 -15.43,-6.762 -32,-10.16 -49.69,-10.16 z" /><path
         id="path32"
         style="fill:#262f63;fill-opacity:1;fill-rule:nonzero;stroke:none"
         d="M 2834.18,882.891 V 748.359 h 67.34 c 9.14,0 17.82,1.719 25.94,5.161 8.13,3.511 15.2,8.32 21.25,14.371 6.13,6.129 10.98,13.32 14.53,21.558 3.52,8.211 5.31,16.922 5.31,26.102 0,9.25 -1.79,17.969 -5.31,26.09 -3.55,8.199 -8.4,15.347 -14.53,21.41 -6.05,6.129 -13.12,10.969 -21.25,14.527 -8.12,3.512 -16.8,5.313 -25.94,5.313 z m 0,-268.911 h -67.19 v 336.098 h 134.53 c 12.27,0 24.1,-1.637 35.47,-4.848 11.45,-3.121 22.11,-7.652 32.03,-13.589 10,-5.86 19.07,-12.891 27.19,-21.09 8.2,-8.129 15.24,-17.192 21.09,-27.192 5.94,-10 10.47,-20.738 13.6,-32.187 3.2,-11.371 4.84,-23.242 4.84,-35.621 0,-18.442 -3.55,-35.86 -10.62,-52.192 -7,-16.25 -16.57,-30.468 -28.75,-42.66 -12.19,-12.179 -26.49,-21.828 -42.82,-28.898 -16.25,-7 -33.59,-10.473 -52.03,-10.473 h -67.34 z" /><path
         id="path34"
         style="fill:#262f63;fill-opacity:1;fill-rule:nonzero;stroke:none"
         d="m 3311.68,613.98 h -15.47 l -24.84,34.54 c -6.17,-5.551 -12.62,-10.711 -19.38,-15.469 -6.79,-4.692 -13.9,-8.832 -21.4,-12.352 -7.5,-3.551 -15.24,-6.32 -23.13,-8.277 -7.93,-2.07 -15.94,-3.121 -24.06,-3.121 -17.62,0 -34.22,2.969 -49.85,8.898 -15.54,5.942 -29.14,14.571 -40.78,25.942 -11.56,11.328 -20.74,25.199 -27.5,41.558 -6.68,16.449 -10,35.16 -10,56.102 0,19.449 3.32,37.379 10,53.75 6.76,16.328 15.94,30.347 27.5,42.027 11.64,11.762 25.24,20.863 40.78,27.344 15.63,6.449 32.23,9.687 49.85,9.687 8.12,0 16.13,-1.058 24.06,-3.129 8.01,-1.992 15.78,-4.8 23.28,-8.429 7.5,-3.563 14.61,-7.781 21.41,-12.66 6.87,-4.801 13.28,-10 19.22,-15.621 l 24.84,29.839 h 15.47 z m -64.53,127.821 c 0,8.75 -1.68,17.179 -5,25.308 -3.36,8.2 -7.93,15.512 -13.75,21.871 -5.74,6.329 -12.5,11.411 -20.31,15.161 -7.74,3.828 -15.94,5.781 -24.69,5.781 -8.75,0 -16.99,-1.524 -24.69,-4.531 -7.73,-2.93 -14.45,-7.301 -20.16,-13.121 -5.74,-5.75 -10.27,-12.891 -13.59,-21.411 -3.24,-8.437 -4.84,-18.129 -4.84,-29.058 0,-10.942 1.6,-20.711 4.84,-29.223 3.32,-8.558 7.85,-15.738 13.59,-21.558 5.71,-5.75 12.43,-10.122 20.16,-13.129 7.7,-2.93 15.94,-4.371 24.69,-4.371 8.75,0 16.95,1.91 24.69,5.781 7.81,3.82 14.57,8.898 20.31,15.148 5.82,6.332 10.39,13.641 13.75,21.879 3.32,8.203 5,16.723 5,25.473 z" /><path
         id="path36"
         style="fill:#262f63;fill-opacity:1;fill-rule:nonzero;stroke:none"
         d="m 3360.12,613.98 h 64.5273 V 964.921 H 3360.12 Z" /><path
         id="path38"
         style="fill:#4b7531;fill-opacity:1;fill-rule:nonzero;stroke:none"
         d="m 1352.93,243.98 h -143.91 v 210 h 143.91 v -42.031 h -101.88 v -42.027 h 68.91 v -42.031 h -68.91 V 286.02 h 101.88 z m 65.16,0 h -39.85 v 156.879 h 9.53 l 13.28,-15.16 c 6.45,5.821 13.75,10.321 21.88,13.442 8.12,3.199 16.64,4.839 25.62,4.839 9.46,0 18.48,-1.871 27.04,-5.621 8.51,-3.668 15.93,-8.668 22.18,-15 6.33,-6.371 11.33,-13.828 15,-22.339 3.75,-8.559 5.63,-17.661 5.63,-27.348 V 243.98 h -40 v 89.692 c 0,4.058 -0.78,7.887 -2.35,11.558 -1.56,3.641 -3.75,6.801 -6.56,9.54 -2.73,2.812 -5.9,5 -9.53,6.562 -3.55,1.559 -7.34,2.34 -11.41,2.34 -4.29,0 -8.28,-0.781 -12.03,-2.34 -3.67,-1.562 -6.87,-3.75 -9.68,-6.562 -2.74,-2.739 -4.85,-5.899 -6.41,-9.54 -1.56,-3.671 -2.34,-7.5 -2.34,-11.558 z" /><path
         id="path40"
         style="fill:#4b7531;fill-opacity:1;fill-rule:nonzero;stroke:none"
         d="m 1609.34,282.422 c 1.56,-0.543 3.12,-0.902 4.68,-1.09 1.57,-0.121 3.13,-0.16 4.69,-0.16 3.83,0 7.58,0.508 11.25,1.558 3.63,1.141 7.03,2.7 10.16,4.692 3.2,1.957 6.09,4.418 8.59,7.348 2.5,2.89 4.53,6.089 6.09,9.531 l 29.22,-29.379 c -3.75,-5.313 -8.04,-10.082 -12.81,-14.223 -4.8,-4.179 -10,-7.769 -15.62,-10.777 -5.63,-2.934 -11.57,-5.121 -17.82,-6.563 -6.17,-1.558 -12.5,-2.339 -19.06,-2.339 -11.05,0 -21.48,2.031 -31.25,6.089 -9.69,4.141 -18.2,9.879 -25.47,17.192 -7.19,7.379 -12.93,16.129 -17.19,26.25 -4.18,10.07 -6.25,21.168 -6.25,33.281 0,12.379 2.07,23.668 6.25,33.898 4.26,10.321 10,19.071 17.19,26.25 7.27,7.27 15.78,12.899 25.47,16.879 9.77,4.063 20.2,6.09 31.25,6.09 6.56,0 12.97,-0.777 19.22,-2.34 6.25,-1.558 12.19,-3.871 17.81,-6.879 5.63,-2.929 10.82,-6.519 15.63,-10.781 4.88,-4.179 9.22,-8.898 12.97,-14.219 z m 20.46,82.348 c -1.87,0.699 -3.71,1.171 -5.46,1.402 -1.8,0.199 -3.68,0.308 -5.63,0.308 -5.55,0 -10.7,-1.05 -15.47,-3.121 -4.8,-1.988 -9.02,-4.839 -12.65,-8.589 -3.56,-3.68 -6.37,-8.09 -8.44,-13.29 -1.99,-5.23 -2.97,-11.089 -2.97,-17.648 0,-1.492 0.04,-3.133 0.16,-5 0.19,-1.883 0.46,-3.75 0.78,-5.633 0.31,-1.867 0.7,-3.711 1.25,-5.469 0.51,-1.789 1.13,-3.351 1.87,-4.679 z" /><path
         id="path42"
         style="fill:#4b7531;fill-opacity:1;fill-rule:nonzero;stroke:none"
         d="m 1744.45,243.98 h -39.84 v 156.879 h 9.53 l 13.28,-18.589 c 6.45,5.82 13.75,10.312 21.88,13.429 8.2,3.211 16.75,4.852 25.62,4.852 h 35.16 v -39.852 h -35.16 c -4.3,0 -8.28,-0.777 -12.03,-2.34 -3.67,-1.558 -6.87,-3.711 -9.69,-6.41 -2.73,-2.73 -4.84,-5.929 -6.4,-9.679 -1.57,-3.75 -2.35,-7.739 -2.35,-11.879 z" /><path
         id="path44"
         style="fill:#4b7531;fill-opacity:1;fill-rule:nonzero;stroke:none"
         d="m 1937.73,323.832 c 0,5.387 -1.05,10.656 -3.12,15.777 -2.11,5.192 -4.96,9.77 -8.59,13.75 -3.68,3.942 -7.93,7.11 -12.82,9.532 -4.8,2.379 -9.92,3.589 -15.31,3.589 -5.55,0 -10.7,-0.929 -15.47,-2.808 -4.8,-1.871 -9.02,-4.652 -12.65,-8.281 -3.56,-3.551 -6.37,-7.969 -8.44,-13.282 -1.99,-5.308 -2.97,-11.41 -2.97,-18.277 0,-6.562 0.98,-12.461 2.97,-17.66 2.07,-5.231 4.88,-9.692 8.44,-13.442 3.63,-3.671 7.85,-6.519 12.65,-8.589 4.77,-1.993 9.92,-2.969 15.47,-2.969 5.39,0 10.51,1.168 15.31,3.598 4.89,2.378 9.14,5.539 12.82,9.531 3.63,3.937 6.48,8.469 8.59,13.59 2.07,5.078 3.12,10.39 3.12,15.941 z m 40.32,-60 c 0,-11.062 -2.15,-21.41 -6.41,-31.102 -4.18,-9.679 -9.92,-18.121 -17.19,-25.308 -7.3,-7.262 -15.78,-13.012 -25.47,-17.192 -9.68,-4.14 -20.07,-6.25 -31.09,-6.25 l -20.16,0.161 v 40 l 19.85,-0.161 c 6.25,0 11.56,0.79 15.94,2.352 4.37,1.559 8.04,3.75 11.09,6.559 3.12,2.808 5.55,6.058 7.34,9.691 1.76,3.508 3.21,7.34 4.38,11.398 -1.56,-2.609 -3.87,-4.761 -6.88,-6.398 -2.93,-1.562 -6.17,-2.812 -9.68,-3.75 -3.56,-1.023 -7.27,-1.762 -11.1,-2.191 -3.87,-0.391 -7.46,-0.621 -10.78,-0.621 -11.05,0 -21.48,1.871 -31.25,5.621 -9.69,3.828 -18.2,9.3 -25.47,16.41 -7.19,7.07 -12.93,15.699 -17.19,25.929 -4.18,10.321 -6.25,21.918 -6.25,34.852 0,11.758 2.07,22.688 6.25,32.809 4.26,10.199 10,18.98 17.19,26.41 7.27,7.5 15.78,13.32 25.47,17.5 9.77,4.25 20.2,6.398 31.25,6.398 5.08,0 10.08,-0.699 15,-2.027 5,-1.25 9.84,-3.043 14.53,-5.313 4.69,-2.187 9.14,-4.808 13.44,-7.808 4.26,-3.051 8.2,-6.332 11.87,-9.852 l 15.63,18.602 h 9.69 z" /><path
         id="path46"
         style="fill:#4b7531;fill-opacity:1;fill-rule:nonzero;stroke:none"
         d="m 2055.74,443.52 c 0,-3.75 -0.74,-7.27 -2.19,-10.469 -1.36,-3.25 -3.28,-6.063 -5.78,-8.442 -2.42,-2.418 -5.23,-4.339 -8.43,-5.777 -3.25,-1.371 -6.72,-2.031 -10.47,-2.031 -3.75,0 -7.31,0.66 -10.63,2.031 -3.24,1.438 -6.05,3.359 -8.44,5.777 -2.3,2.379 -4.18,5.192 -5.62,8.442 -1.48,3.199 -2.19,6.719 -2.19,10.469 0,3.628 0.71,7.07 2.19,10.308 1.44,3.203 3.32,6.012 5.62,8.442 2.39,2.378 5.2,4.289 8.44,5.781 3.32,1.437 6.88,2.179 10.63,2.179 3.75,0 7.22,-0.742 10.47,-2.179 3.2,-1.492 6.01,-3.403 8.43,-5.781 2.5,-2.43 4.42,-5.239 5.78,-8.442 1.45,-3.238 2.19,-6.68 2.19,-10.308 z m -6.87,-199.54 h -40.1602 v 156.879 h 40.1602 z" /><path
         id="path48"
         style="fill:#4b7531;fill-opacity:1;fill-rule:nonzero;stroke:none"
         d="m 2141.95,282.422 c 1.57,-0.543 3.13,-0.902 4.69,-1.09 1.56,-0.121 3.13,-0.16 4.69,-0.16 3.83,0 7.58,0.508 11.25,1.558 3.63,1.141 7.03,2.7 10.15,4.692 3.21,1.957 6.1,4.418 8.6,7.348 2.5,2.89 4.53,6.089 6.09,9.531 l 29.22,-29.379 c -3.75,-5.313 -8.05,-10.082 -12.81,-14.223 -4.81,-4.179 -10,-7.769 -15.63,-10.777 -5.62,-2.934 -11.56,-5.121 -17.81,-6.563 -6.17,-1.558 -12.5,-2.339 -19.06,-2.339 -11.06,0 -21.49,2.031 -31.25,6.089 -9.69,4.141 -18.2,9.879 -25.47,17.192 -7.19,7.379 -12.93,16.129 -17.19,26.25 -4.18,10.07 -6.25,21.168 -6.25,33.281 0,12.379 2.07,23.668 6.25,33.898 4.26,10.321 10,19.071 17.19,26.25 7.27,7.27 15.78,12.899 25.47,16.879 9.76,4.063 20.19,6.09 31.25,6.09 6.56,0 12.97,-0.777 19.22,-2.34 6.25,-1.558 12.18,-3.871 17.81,-6.879 5.62,-2.929 10.82,-6.519 15.62,-10.781 4.89,-4.179 9.22,-8.898 12.97,-14.219 z m 20.47,82.348 c -1.87,0.699 -3.71,1.171 -5.47,1.402 -1.79,0.199 -3.67,0.308 -5.62,0.308 -5.55,0 -10.71,-1.05 -15.47,-3.121 -4.81,-1.988 -9.02,-4.839 -12.66,-8.589 -3.55,-3.68 -6.36,-8.09 -8.43,-13.29 -2,-5.23 -2.97,-11.089 -2.97,-17.648 0,-1.492 0.04,-3.133 0.15,-5 0.2,-1.883 0.47,-3.75 0.78,-5.633 0.32,-1.867 0.71,-3.711 1.25,-5.469 0.51,-1.789 1.14,-3.351 1.88,-4.679 z" /><path
         id="path50"
         style="fill:#4b7531;fill-opacity:1;fill-rule:nonzero;stroke:none"
         d="m 2277.38,243.98 h -40.15 v 219.219 h 40.15 V 324.922 l 59.69,75.629 h 45.94 l -52.03,-65.321 52.03,-91.25 h -45.94 l -31.87,57.04 -27.82,-37.04 z" /><path
         id="path52"
         style="fill:#4b7531;fill-opacity:1;fill-rule:nonzero;stroke:none"
         d="m 2545.82,323.832 c 0,-11.801 -2.15,-22.742 -6.41,-32.812 -4.18,-10.122 -9.92,-18.872 -17.18,-26.25 -7.19,-7.309 -15.63,-13.09 -25.32,-17.348 -9.68,-4.262 -20.11,-6.402 -31.25,-6.402 -11.05,0 -21.4,2.14 -31.09,6.402 -9.69,4.258 -18.2,10.039 -25.47,17.348 -7.3,7.378 -13.08,16.128 -17.34,26.25 -4.18,10.07 -6.25,21.011 -6.25,32.812 0,11.867 2.07,22.848 6.25,32.969 4.26,10.187 10.04,18.98 17.34,26.398 7.27,7.391 15.78,13.172 25.47,17.352 9.69,4.25 20.04,6.398 31.09,6.398 11.14,0 21.57,-1.988 31.25,-5.929 9.69,-3.989 18.13,-9.61 25.32,-16.879 7.26,-7.301 13,-16.051 17.18,-26.25 4.26,-10.231 6.41,-21.559 6.41,-34.059 z m -40.31,0 c 0,6.438 -1.06,12.258 -3.13,17.5 -2.11,5.188 -4.96,9.688 -8.59,13.438 -3.67,3.75 -7.89,6.601 -12.66,8.589 -4.8,2.071 -9.96,3.121 -15.47,3.121 -5.43,0 -10.58,-1.05 -15.46,-3.121 -4.81,-1.988 -9.03,-4.839 -12.66,-8.589 -3.56,-3.75 -6.37,-8.25 -8.44,-13.438 -1.99,-5.242 -2.97,-11.062 -2.97,-17.5 0,-6.062 0.98,-11.684 2.97,-16.883 2.07,-5.23 4.88,-9.758 8.44,-13.59 3.63,-3.75 7.85,-6.718 12.66,-8.91 4.88,-2.179 10.03,-3.277 15.46,-3.277 5.51,0 10.67,1.019 15.47,3.129 4.77,2.07 8.99,4.918 12.66,8.59 3.63,3.75 6.48,8.199 8.59,13.441 2.07,5.309 3.13,11.129 3.13,17.5 z" /><path
         id="path54"
         style="fill:#4b7531;fill-opacity:1;fill-rule:nonzero;stroke:none"
         d="m 2654.38,243.98 h -91.41 v 39.852 h 91.41 c 2.69,0 5.03,0.969 7.03,2.969 1.95,1.949 2.97,4.289 2.97,7.031 0,2.809 -1.02,4.609 -2.97,5.469 -2,0.929 -4.34,1.398 -7.03,1.398 h -41.57 c -6.99,0 -13.51,1.289 -19.53,3.91 -6.05,2.582 -11.37,6.172 -15.94,10.782 -4.49,4.57 -8.04,9.879 -10.62,15.941 -2.5,6.008 -3.75,12.5 -3.75,19.367 0,6.961 1.25,13.481 3.75,19.531 2.58,6.02 6.13,11.29 10.62,15.79 4.57,4.57 9.89,8.121 15.94,10.621 6.02,2.578 12.54,3.91 19.53,3.91 h 80.94 v -39.852 h -80.94 c -2.81,0 -5.23,-1.008 -7.19,-2.969 -1.87,-1.871 -2.81,-4.21 -2.81,-7.031 0,-2.808 0.94,-5.23 2.81,-7.179 1.96,-2 4.38,-2.969 7.19,-2.969 h 41.57 c 6.75,0 13.16,-1.172 19.21,-3.442 6.14,-2.308 11.45,-5.55 15.94,-9.687 4.45,-4.063 8.01,-9.024 10.63,-14.84 2.69,-5.742 4.06,-11.992 4.06,-18.75 0,-6.992 -1.37,-13.523 -4.06,-19.531 -2.62,-5.942 -6.18,-11.211 -10.63,-15.781 -4.49,-4.5 -9.8,-8.051 -15.94,-10.629 -6.05,-2.621 -12.46,-3.911 -19.21,-3.911 z" /><path
         id="path56"
         style="fill:#4b7531;fill-opacity:1;fill-rule:nonzero;stroke:none"
         d="m 2803.91,243.98 c -9.69,0 -18.83,1.801 -27.35,5.469 -8.44,3.641 -15.9,8.641 -22.34,15 -6.37,6.449 -11.37,13.91 -15,22.352 -3.67,8.508 -5.47,17.648 -5.47,27.34 v 46.558 h -19.53 v 39.852 h 19.53 v 62.648 h 39.84 v -62.648 h 60.63 v -39.852 h -60.63 v -46.558 c 0,-4.18 0.79,-8.121 2.35,-11.871 1.56,-3.68 3.67,-6.84 6.4,-9.54 2.7,-2.73 5.94,-4.921 9.69,-6.558 3.75,-1.563 7.7,-2.34 11.88,-2.34 h 30.31 V 243.98 Z" /><path
         id="path58"
         style="fill:#4b7531;fill-opacity:1;fill-rule:nonzero;stroke:none"
         d="m 2918.91,282.422 c 1.56,-0.543 3.12,-0.902 4.68,-1.09 1.57,-0.121 3.13,-0.16 4.69,-0.16 3.83,0 7.58,0.508 11.25,1.558 3.63,1.141 7.03,2.7 10.16,4.692 3.2,1.957 6.09,4.418 8.59,7.348 2.5,2.89 4.53,6.089 6.1,9.531 l 29.21,-29.379 c -3.75,-5.313 -8.04,-10.082 -12.81,-14.223 -4.8,-4.179 -10,-7.769 -15.62,-10.777 -5.63,-2.934 -11.57,-5.121 -17.82,-6.563 -6.17,-1.558 -12.5,-2.339 -19.06,-2.339 -11.05,0 -21.48,2.031 -31.25,6.089 -9.69,4.141 -18.2,9.879 -25.47,17.192 -7.18,7.379 -12.93,16.129 -17.18,26.25 -4.18,10.07 -6.26,21.168 -6.26,33.281 0,12.379 2.08,23.668 6.26,33.898 4.25,10.321 10,19.071 17.18,26.25 7.27,7.27 15.78,12.899 25.47,16.879 9.77,4.063 20.2,6.09 31.25,6.09 6.56,0 12.97,-0.777 19.22,-2.34 6.25,-1.558 12.19,-3.871 17.81,-6.879 5.63,-2.929 10.82,-6.519 15.63,-10.781 4.88,-4.179 9.22,-8.898 12.97,-14.219 z m 20.47,82.348 c -1.88,0.699 -3.72,1.171 -5.47,1.402 -1.8,0.199 -3.68,0.308 -5.63,0.308 -5.55,0 -10.7,-1.05 -15.47,-3.121 -4.8,-1.988 -9.02,-4.839 -12.65,-8.589 -3.56,-3.68 -6.37,-8.09 -8.44,-13.29 -1.99,-5.23 -2.97,-11.089 -2.97,-17.648 0,-1.492 0.04,-3.133 0.16,-5 0.19,-1.883 0.47,-3.75 0.78,-5.633 0.31,-1.867 0.7,-3.711 1.25,-5.469 0.51,-1.789 1.13,-3.351 1.87,-4.679 z" /><path
         id="path60"
         style="fill:#4b7531;fill-opacity:1;fill-rule:nonzero;stroke:none"
         d="m 3054.02,243.98 h -39.84 v 156.879 h 9.53 l 13.28,-15.16 c 6.45,5.821 13.75,10.321 21.88,13.442 8.12,3.199 16.64,4.839 25.62,4.839 9.46,0 18.48,-1.871 27.03,-5.621 8.52,-3.668 15.94,-8.668 22.19,-15 6.33,-6.371 11.33,-13.828 15,-22.339 3.75,-8.559 5.63,-17.661 5.63,-27.348 V 243.98 h -40 v 89.692 c 0,4.058 -0.79,7.887 -2.35,11.558 -1.56,3.641 -3.75,6.801 -6.56,9.54 -2.73,2.812 -5.9,5 -9.53,6.562 -3.56,1.559 -7.35,2.34 -11.41,2.34 -4.29,0 -8.28,-0.781 -12.03,-2.34 -3.67,-1.562 -6.87,-3.75 -9.69,-6.562 -2.73,-2.739 -4.84,-5.899 -6.4,-9.54 -1.57,-3.671 -2.35,-7.5 -2.35,-11.558 z" /><path
         id="path62"
         style="fill:#4b7531;fill-opacity:1;fill-rule:nonzero;stroke:none"
         d="m 3338.79,323.832 c 0,-12.312 -2.15,-23.562 -6.41,-33.75 -4.18,-10.121 -9.92,-18.832 -17.18,-26.102 -7.19,-7.3 -15.63,-12.96 -25.32,-17.031 -9.68,-3.937 -20.11,-5.929 -31.25,-5.929 -11.05,0 -21.48,2.031 -31.25,6.089 -9.68,4.141 -18.2,9.879 -25.47,17.192 -7.18,7.379 -12.93,16.129 -17.18,26.25 -4.18,10.07 -6.25,21.168 -6.25,33.281 v 139.367 h 40.15 v -73.117 c 2.07,2.688 4.61,5.078 7.66,7.188 3.12,2.179 6.44,3.941 10,5.312 3.63,1.328 7.34,2.379 11.09,3.117 3.83,0.821 7.58,1.25 11.25,1.25 11.14,0 21.57,-2.109 31.25,-6.25 9.69,-4.179 18.13,-10 25.32,-17.5 7.26,-7.418 13,-16.168 17.18,-26.25 4.26,-10.109 6.41,-21.168 6.41,-33.117 z m -40.31,0 c 0,6.008 -1.1,11.637 -3.28,16.867 -2.11,5.199 -4.97,9.731 -8.6,13.602 -3.55,3.82 -7.77,6.789 -12.65,8.898 -4.81,2.192 -9.93,3.281 -15.32,3.281 -5.54,0 -10.74,-1.21 -15.62,-3.589 -4.81,-2.422 -9.03,-5.59 -12.66,-9.532 -3.55,-3.98 -6.37,-8.558 -8.44,-13.75 -1.99,-5.121 -2.96,-10.39 -2.96,-15.777 0,-6.062 0.97,-11.684 2.96,-16.883 2.07,-5.23 4.89,-9.758 8.44,-13.59 3.63,-3.75 7.85,-6.718 12.66,-8.91 4.88,-2.179 10.08,-3.277 15.62,-3.277 5.39,0 10.51,1.098 15.32,3.277 4.88,2.192 9.1,5.16 12.65,8.91 3.63,3.832 6.49,8.36 8.6,13.59 2.18,5.199 3.28,10.821 3.28,16.883 z" /><path
         id="path64"
         style="fill:#4b7531;fill-opacity:1;fill-rule:nonzero;stroke:none"
         d="m 3423.4,282.422 c 1.56,-0.543 3.12,-0.902 4.69,-1.09 1.56,-0.121 3.12,-0.16 4.68,-0.16 3.83,0 7.58,0.508 11.25,1.558 3.64,1.141 7.03,2.7 10.16,4.692 3.2,1.957 6.09,4.418 8.59,7.348 2.5,2.89 4.53,6.089 6.1,9.531 l 29.22,-29.379 c -3.75,-5.313 -8.05,-10.082 -12.82,-14.223 -4.8,-4.179 -10,-7.769 -15.62,-10.777 -5.63,-2.934 -11.56,-5.121 -17.81,-6.563 -6.18,-1.558 -12.5,-2.339 -19.07,-2.339 -11.05,0 -21.48,2.031 -31.25,6.089 -9.68,4.141 -18.2,9.879 -25.47,17.192 -7.18,7.379 -12.93,16.129 -17.18,26.25 -4.18,10.07 -6.25,21.168 -6.25,33.281 0,12.379 2.07,23.668 6.25,33.898 4.25,10.321 10,19.071 17.18,26.25 7.27,7.27 15.79,12.899 25.47,16.879 9.77,4.063 20.2,6.09 31.25,6.09 6.57,0 12.97,-0.777 19.22,-2.34 6.25,-1.558 12.19,-3.871 17.81,-6.879 5.63,-2.929 10.82,-6.519 15.63,-10.781 4.88,-4.179 9.22,-8.898 12.97,-14.219 z m 20.47,82.348 c -1.88,0.699 -3.71,1.171 -5.47,1.402 -1.8,0.199 -3.67,0.308 -5.63,0.308 -5.54,0 -10.7,-1.05 -15.47,-3.121 -4.8,-1.988 -9.02,-4.839 -12.65,-8.589 -3.56,-3.68 -6.37,-8.09 -8.44,-13.29 -1.99,-5.23 -2.97,-11.089 -2.97,-17.648 0,-1.492 0.04,-3.133 0.16,-5 0.19,-1.883 0.47,-3.75 0.78,-5.633 0.31,-1.867 0.7,-3.711 1.25,-5.469 0.51,-1.789 1.13,-3.351 1.87,-4.679 z" /><path
         id="path66"
         style="fill:#4b7531;fill-opacity:1;fill-rule:nonzero;stroke:none"
         d="m 3558.52,243.98 h -39.85 v 156.879 h 9.53 l 13.28,-18.589 c 6.45,5.82 13.75,10.312 21.88,13.429 8.2,3.211 16.76,4.852 25.62,4.852 h 35.16 v -39.852 h -35.16 c -4.29,0 -8.28,-0.777 -12.03,-2.34 -3.67,-1.558 -6.87,-3.711 -9.68,-6.41 -2.74,-2.73 -4.85,-5.929 -6.41,-9.679 -1.56,-3.75 -2.34,-7.739 -2.34,-11.879 z" /><path
         id="path68"
         style="fill:#4b7531;fill-opacity:1;fill-rule:nonzero;stroke:none"
         d="m 3792.11,243.98 h -9.69 l -15.62,21.571 c -3.75,-3.442 -7.78,-6.68 -12.03,-9.692 -4.3,-2.929 -8.75,-5.468 -13.44,-7.66 -4.69,-2.179 -9.49,-3.898 -14.38,-5.148 -4.92,-1.332 -9.92,-2.031 -15,-2.031 -11.05,0 -21.48,1.871 -31.25,5.621 -9.68,3.75 -18.2,9.097 -25.47,16.089 -7.18,7.071 -12.93,15.711 -17.18,25.942 -4.18,10.308 -6.25,22.027 -6.25,35.16 0,12.188 2.07,23.359 6.25,33.59 4.25,10.199 10,18.949 17.18,26.25 7.27,7.379 15.79,13.129 25.47,17.187 9.77,4.063 20.2,6.09 31.25,6.09 5.08,0 10.08,-0.699 15,-2.027 5,-1.25 9.85,-3.043 14.53,-5.313 4.69,-2.187 9.14,-4.808 13.44,-7.808 4.26,-3.051 8.2,-6.332 11.88,-9.852 l 15.62,18.602 h 9.69 z m -40.31,79.852 c 0,5.387 -1.06,10.656 -3.13,15.777 -2.11,5.192 -4.96,9.77 -8.59,13.75 -3.67,3.942 -7.93,7.11 -12.81,9.532 -4.81,2.379 -9.93,3.589 -15.32,3.589 -5.54,0 -10.7,-0.929 -15.47,-2.808 -4.8,-1.871 -9.02,-4.652 -12.65,-8.281 -3.56,-3.551 -6.37,-7.969 -8.44,-13.282 -1.99,-5.308 -2.97,-11.41 -2.97,-18.277 0,-6.883 0.98,-12.973 2.97,-18.281 2.07,-5.321 4.88,-9.813 8.44,-13.442 3.63,-3.558 7.85,-6.25 12.65,-8.129 4.77,-1.871 9.93,-2.808 15.47,-2.808 5.39,0 10.51,1.168 15.32,3.598 4.88,2.378 9.14,5.539 12.81,9.531 3.63,3.937 6.48,8.469 8.59,13.59 2.07,5.078 3.13,10.39 3.13,15.941 z" /><path
         id="path70"
         style="fill:#4b7531;fill-opacity:1;fill-rule:nonzero;stroke:none"
         d="m 3901.37,243.98 c -9.69,0 -18.83,1.801 -27.35,5.469 -8.43,3.641 -15.9,8.641 -22.34,15 -6.37,6.449 -11.37,13.91 -15,22.352 -3.67,8.508 -5.47,17.648 -5.47,27.34 v 46.558 h -19.53 v 39.852 h 19.53 v 62.648 h 39.84 v -62.648 h 60.63 v -39.852 h -60.63 v -46.558 c 0,-4.18 0.79,-8.121 2.35,-11.871 1.56,-3.68 3.67,-6.84 6.4,-9.54 2.7,-2.73 5.94,-4.921 9.69,-6.558 3.75,-1.563 7.7,-2.34 11.88,-2.34 h 30.31 V 243.98 Z" /><path
         id="path72"
         style="fill:#4b7531;fill-opacity:1;fill-rule:nonzero;stroke:none"
         d="m 4069.18,262.27 c -3.24,-2.93 -6.68,-5.711 -10.31,-8.29 -3.67,-2.609 -7.5,-4.839 -11.57,-6.71 -3.98,-1.879 -8.08,-3.36 -12.34,-4.54 -4.18,-1.128 -8.51,-1.71 -12.97,-1.71 -9.61,0 -18.67,1.71 -27.19,5.152 -8.43,3.437 -15.89,8.277 -22.34,14.527 -6.37,6.332 -11.41,13.992 -15.16,22.973 -3.67,9.058 -5.46,19.219 -5.46,30.469 v 86.718 h 39.84 v -86.718 c 0,-5.309 0.78,-10.082 2.34,-14.219 1.64,-4.063 3.83,-7.582 6.57,-10.473 2.81,-2.808 6.01,-4.961 9.68,-6.398 3.64,-1.492 7.54,-2.192 11.72,-2.192 4.14,0 8.05,0.942 11.72,2.813 3.63,1.949 6.8,4.527 9.53,7.66 2.81,3.117 5,6.637 6.56,10.617 1.57,3.949 2.35,8.012 2.35,12.192 v 86.718 h 40 V 243.98 h -9.69 z" /><path
         id="path74"
         style="fill:#4b7531;fill-opacity:1;fill-rule:nonzero;stroke:none"
         d="m 4162.62,243.98 h -39.85 v 156.879 h 9.53 l 13.29,-15.16 c 6.44,5.821 13.75,10.321 21.87,13.442 8.13,3.199 16.64,4.839 25.63,4.839 9.45,0 18.47,-1.871 27.03,-5.621 8.51,-3.668 15.93,-8.668 22.18,-15 6.33,-6.371 11.33,-13.828 15,-22.339 3.75,-8.559 5.63,-17.661 5.63,-27.348 V 243.98 h -40 v 89.692 c 0,4.058 -0.78,7.887 -2.34,11.558 -1.57,3.641 -3.75,6.801 -6.57,9.54 -2.73,2.812 -5.9,5 -9.53,6.562 -3.55,1.559 -7.34,2.34 -11.4,2.34 -4.3,0 -8.29,-0.781 -12.04,-2.34 -3.67,-1.562 -6.87,-3.75 -9.68,-6.562 -2.74,-2.739 -4.85,-5.899 -6.41,-9.54 -1.56,-3.671 -2.34,-7.5 -2.34,-11.558 z" /><path
         id="path76"
         style="fill:#4b7531;fill-opacity:1;fill-rule:nonzero;stroke:none"
         d="m 4403.09,323.832 c 0,5.387 -1.06,10.656 -3.13,15.777 -2.11,5.192 -4.96,9.77 -8.59,13.75 -3.67,3.942 -7.93,7.11 -12.82,9.532 -4.8,2.379 -9.92,3.589 -15.31,3.589 -5.54,0 -10.7,-0.929 -15.47,-2.808 -4.8,-1.871 -9.02,-4.652 -12.65,-8.281 -3.56,-3.551 -6.37,-7.969 -8.44,-13.282 -1.99,-5.308 -2.97,-11.41 -2.97,-18.277 0,-6.562 0.98,-12.461 2.97,-17.66 2.07,-5.231 4.88,-9.692 8.44,-13.442 3.63,-3.671 7.85,-6.519 12.65,-8.589 4.77,-1.993 9.93,-2.969 15.47,-2.969 5.39,0 10.51,1.168 15.31,3.598 4.89,2.378 9.15,5.539 12.82,9.531 3.63,3.937 6.48,8.469 8.59,13.59 2.07,5.078 3.13,10.39 3.13,15.941 z m 40.31,-60 c 0,-11.062 -2.15,-21.41 -6.41,-31.102 -4.18,-9.679 -9.92,-18.121 -17.19,-25.308 -7.3,-7.262 -15.78,-13.012 -25.46,-17.192 -9.69,-4.14 -20.08,-6.25 -31.1,-6.25 l -20.15,0.161 v 40 l 19.84,-0.161 c 6.25,0 11.56,0.79 15.94,2.352 4.37,1.559 8.04,3.75 11.09,6.559 3.13,2.808 5.55,6.058 7.34,9.691 1.76,3.508 3.21,7.34 4.38,11.398 -1.56,-2.609 -3.87,-4.761 -6.88,-6.398 -2.92,-1.562 -6.17,-2.812 -9.68,-3.75 -3.56,-1.023 -7.27,-1.762 -11.1,-2.191 -3.86,-0.391 -7.46,-0.621 -10.78,-0.621 -11.05,0 -21.48,1.871 -31.25,5.621 -9.69,3.828 -18.2,9.3 -25.47,16.41 -7.18,7.07 -12.93,15.699 -17.18,25.929 -4.18,10.321 -6.25,21.918 -6.25,34.852 0,11.758 2.07,22.688 6.25,32.809 4.25,10.199 10,18.98 17.18,26.41 7.27,7.5 15.78,13.32 25.47,17.5 9.77,4.25 20.2,6.398 31.25,6.398 5.08,0 10.08,-0.699 15,-2.027 5,-1.25 9.85,-3.043 14.53,-5.313 4.69,-2.187 9.14,-4.808 13.44,-7.808 4.26,-3.051 8.2,-6.332 11.88,-9.852 l 15.62,18.602 h 9.69 z" /></g></g></svg>